<svg xmlns="http://www.w3.org/2000/svg" viewBox="0 0 64 64" role="img" aria-label="ECCOOZS favicon">
  <defs>
    <linearGradient id="blue" x1="6" y1="12" x2="58" y2="52" gradientUnits="userSpaceOnUse">
      <stop offset="0" stop-color="#18B7FF"/>
      <stop offset="0.45" stop-color="#168CFF"/>
      <stop offset="1" stop-color="#315BFF"/>
    </linearGradient>
  </defs>

  <path d="M13 18.5C17 14.5 22.6 12.5 29.4 12.5H50.5C53.4 12.5 55.8 14.9 55.8 17.8C55.8 20.7 53.4 23.1 50.5 23.1H29.5C25.5 23.1 22.4 24.1 20 26.3H46.5C49.4 26.3 51.8 28.7 51.8 31.6C51.8 34.5 49.4 36.9 46.5 36.9H20C22.4 39.1 25.5 40.1 29.5 40.1H50.5C53.4 40.1 55.8 42.5 55.8 45.4C55.8 48.3 53.4 50.7 50.5 50.7H29.4C22.6 50.7 17 48.7 13 44.7L8.2 39.9H18.8C17.7 37.4 17.1 34.7 17.1 31.6C17.1 28.5 17.7 25.8 18.8 23.3H8.2L13 18.5Z" fill="url(#blue)"/>
</svg>
