<svg xmlns="http://www.w3.org/2000/svg" viewBox="0 0 64 64" role="img" aria-label="ECCOOZS favicon">
  <defs>
    <linearGradient id="eccoozsBlue" x1="8" y1="14" x2="56" y2="50" gradientUnits="userSpaceOnUse">
      <stop offset="0" stop-color="#1DBDFF"/>
      <stop offset="0.45" stop-color="#149BFF"/>
      <stop offset="1" stop-color="#315BFF"/>
    </linearGradient>
  </defs>

  <path d="M14 18H52C55 18 57.5 20.5 57.5 23.5C57.5 26.5 55 29 52 29H14C11 29 8.5 26.5 8.5 23.5C8.5 20.5 11 18 14 18Z" fill="url(#eccoozsBlue)"/>
  <path d="M10 28H46C49 28 51.5 30.5 51.5 33.5C51.5 36.5 49 39 46 39H10C7 39 4.5 36.5 4.5 33.5C4.5 30.5 7 28 10 28Z" fill="url(#eccoozsBlue)"/>
  <path d="M14 38H52C55 38 57.5 40.5 57.5 43.5C57.5 46.5 55 49 52 49H14C11 49 8.5 46.5 8.5 43.5C8.5 40.5 11 38 14 38Z" fill="url(#eccoozsBlue)"/>
</svg>
